# xmcd CD database file
#
# Track frame offsets:
#	150
#	20775
#	38400
#	64425
#	98250
#	115800
#	137400
#	154425
#	174900
#	209175
#	232425
#
# Disc length: 3303 seconds
#
# Revision: 2
# Processed by: cddbd v1.5.2PL0 Copyright (c) Steve Scherf et al.
# Submitted via: CDex 1.70beta2
#
DISCID=9a0ce50b
DTITLE=Blue Note - A Story Of Jazz-Club-[CD6]
DYEAR=1900
DGENRE=Jazz
TTITLE0=Charlie Hunter Feat. Norah Jones/Day Is Done
TTITLE1=Nicola Conte/A Time For Spring
TTITLE2=Erik Truffaz/Big Wheel
TTITLE3=Gianluca Petrella/Lazy Moon
TTITLE4=Marc Moulin/Into the Dark (Don't Stop the Train Remix by Gabin-Radio Edit)
TTITLE5=Slowhill/Just a Phrase
TTITLE6=Us3/Eleven Long Years
TTITLE7=Raul Midón/Sunshine (I Can Fly)
TTITLE8=Jason Moran/I'll Play the Blues for You
TTITLE9=Medeski, Martin and Wood/End Of The World Party
TTITLE10=Funk Off/Follow the White Rabbit
EXTD=
EXTT0=
EXTT1=
EXTT2=
EXTT3=
EXTT4=
EXTT5=
EXTT6=
EXTT7=
EXTT8=
EXTT9=
EXTT10=
PLAYORDER=
